<?xml version="1.0" encoding="UTF-8"?>
<svg width="29px" height="22px" viewBox="0 0 29 22" version="1.1" xmlns="http://www.w3.org/2000/svg" xmlns:xlink="http://www.w3.org/1999/xlink">
    <!-- Generator: Sketch 50.2 (55047) - http://www.bohemiancoding.com/sketch -->
    <title>Cart</title>
    <desc>Created with Sketch.</desc>
    <defs></defs>
    <g id="Symbols" stroke="none" stroke-width="1" fill="none" fill-rule="evenodd">
        <g id="promo-bar" transform="translate(-1347.000000, -25.000000)" fill="#F4F4F4">
            <g id="Icons-/-Cart">
                <g transform="translate(1347.000000, 25.000000)">
                    <path d="M11.3796,17.5223529 C12.4474444,17.5223529 13.3161556,18.4023529 13.3161556,19.4829412 C13.3161556,20.5570588 12.4474444,21.4370588 11.3796,21.4370588 C10.3117556,21.4370588 9.44304444,20.5570588 9.44304444,19.4829412 C9.44304444,18.4023529 10.3117556,17.5223529 11.3796,17.5223529 Z M23.0588667,17.5223529 C24.1267111,17.5223529 24.9954222,18.4023529 24.9954222,19.4829412 C24.9954222,20.5570588 24.1267111,21.4370588 23.0588667,21.4370588 C21.9910222,21.4370588 21.1223111,20.5570588 21.1223111,19.4829412 C21.1223111,18.4023529 21.9910222,17.5223529 23.0588667,17.5223529 Z M24.3303556,13.4847059 L9.75495556,13.4847059 L7.61024444,5.25411765 L26.2140667,5.27352941 L24.3303556,13.4847059 Z M28.1847778,3.70117647 C28.0017556,3.46823529 27.724,3.33882353 27.4294889,3.33235294 L7.10371111,3.31294118 L6.4844,0.931764706 C6.37291111,0.504705882 5.98882222,0.207058824 5.54931111,0.207058824 L0.989866667,0.207058824 C0.455622222,0.207058824 0.0232,0.640588235 0.0232,1.17764706 C0.0232,1.71470588 0.455622222,2.14823529 0.989866667,2.14823529 L4.80304444,2.14823529 L5.4172,4.50352941 C5.42042222,4.52294118 5.42428889,4.53588235 5.42815556,4.54882353 L8.07295556,14.7011765 C8.18444444,15.1282353 8.56853333,15.4258824 9.00868889,15.4258824 L25.0991778,15.4258824 C25.5496444,15.4258824 25.9401778,15.1152941 26.0413556,14.6752941 L28.3703778,4.52294118 C28.4367556,4.23823529 28.3684444,3.93411765 28.1847778,3.70117647 Z" id="6G"></path>
                </g>
            </g>
        </g>
    </g>
</svg>