<?xml version="1.0" encoding="UTF-8"?>
<svg width="19px" height="22px" viewBox="0 0 19 22" version="1.1" xmlns="http://www.w3.org/2000/svg" xmlns:xlink="http://www.w3.org/1999/xlink">
    <!-- Generator: Sketch 50.2 (55047) - http://www.bohemiancoding.com/sketch -->
    <title>Icons / User</title>
    <desc>Created with Sketch.</desc>
    <defs></defs>
    <g id="Symbols" stroke="none" stroke-width="1" fill="none" fill-rule="evenodd">
        <g id="promo-bar" transform="translate(-1205.000000, -23.000000)" fill="#F4F4F4">
            <g id="Icons-/-User">
                <g transform="translate(1205.000000, 23.000000)">
                    <path d="M9.386,2.0955 C11.1633143,2.0955 12.6094857,3.564 12.6094857,5.3625 C12.6094857,7.1665 11.1633143,8.6295 9.386,8.6295 C7.60868571,8.6295 6.16305714,7.1665 6.16305714,5.3625 C6.16305714,3.564 7.60868571,2.0955 9.386,2.0955 Z M9.386,10.2795 C12.0612,10.2795 14.2380571,8.074 14.2380571,5.3625 C14.2380571,2.651 12.0612,0.4455 9.386,0.4455 C6.7108,0.4455 4.53448571,2.651 4.53448571,5.3625 C4.53448571,8.074 6.7108,10.2795 9.386,10.2795 Z M17.0766571,20.009 L1.69534286,20.009 L1.69534286,16.181 C1.69534286,15.213 2.06937143,14.267 2.69582857,13.6455 C3.01611429,13.3265 3.54377143,12.9415 4.29671429,12.9635 C4.712,12.9745 5.99857143,12.958 7.56308571,12.9525 C9.90062857,12.9415 12.8488857,12.925 14.3743143,12.925 C16.2308857,12.925 17.0766571,14.4595 17.0766571,15.884 L17.0766571,20.009 Z M14.3743143,11.275 C12.8472571,11.275 9.89574286,11.2915 7.55548571,11.3025 C6.00237143,11.308 4.7196,11.3135 4.31897143,11.3135 C4.31734286,11.3135 4.31517143,11.3135 4.313,11.3135 C3.30437143,11.297 2.32288571,11.704 1.55528571,12.4685 C0.6232,13.3925 0.0667714286,14.7785 0.0667714286,16.181 L0.0667714286,20.834 C0.0667714286,21.285 0.431028571,21.659 0.881057143,21.659 L17.8909429,21.659 C18.3404286,21.659 18.7052286,21.285 18.7052286,20.834 L18.7052286,15.884 C18.7052286,13.651 17.1874,11.275 14.3743143,11.275 Z" id="4F"></path>
                </g>
            </g>
        </g>
    </g>
</svg>